<svg version="1.1" id="Layer_1" xmlns="http://www.w3.org/2000/svg" xmlns:xlink="http://www.w3.org/1999/xlink" x="0px" y="0px"
	 width="100%" viewBox="0 0 200 200" enable-background="new 0 0 200 200" xml:space="preserve">
<path fill="#FEFEFE" opacity="1.000000" stroke="none" 
	d="
M1.000000,110.000000 
	C1.000000,73.703575 1.000000,37.407150 1.000000,1.055363 
	C67.561996,1.055363 134.124054,1.055363 201.000000,1.055363 
	C201.000000,41.353683 201.000000,81.708183 200.651337,122.426575 
	C198.641327,118.128342 195.027145,116.212906 190.281525,117.479523 
	C185.568909,118.737335 184.293930,121.232872 185.742691,128.694016 
	C187.534821,126.568329 188.580032,125.267769 189.693237,124.028282 
	C190.518112,123.109825 191.308716,122.006287 192.361664,121.517982 
	C192.824936,121.303139 194.538055,122.351509 194.593155,122.930183 
	C194.867538,125.811760 196.367447,128.810379 192.213028,130.920898 
	C189.196518,132.453369 186.052765,135.175583 184.666580,138.157867 
	C182.258972,143.337631 185.834579,149.119003 190.423141,147.940613 
	C194.199158,146.970871 197.497940,148.207077 201.000000,148.000000 
	C201.000000,165.643845 201.000000,183.287674 201.000000,200.965759 
	C134.442322,200.965759 67.884613,200.965759 1.000000,200.965759 
	C1.000000,172.646606 1.000000,144.291962 1.448866,115.422592 
	C2.309160,116.333931 3.060805,117.756157 3.076933,119.186676 
	C3.183503,128.639374 3.132016,138.093842 3.132016,147.782898 
	C5.242831,147.782898 6.961455,147.782898 9.166233,147.782898 
	C9.166233,136.724472 9.166233,125.840179 9.166233,114.998184 
	C11.286367,114.888283 12.917588,114.803719 14.714359,114.710579 
	C14.714359,113.134270 14.714359,111.773178 14.714359,110.000000 
	C9.942009,110.000000 5.471004,110.000000 1.000000,110.000000 
M86.007408,58.845585 
	C86.959923,64.965683 89.334801,70.374062 93.700706,74.460823 
	C97.787582,72.857101 101.749702,71.302330 106.061768,69.610245 
	C107.492668,77.774719 111.047997,85.187943 108.044991,93.082359 
	C106.702133,96.612511 104.680870,99.880920 103.035042,103.300636 
	C101.667755,106.141624 102.983032,109.230675 105.425400,108.695312 
	C106.774979,108.399490 108.314987,106.943993 108.919876,105.622528 
	C111.895187,99.122574 114.585907,92.492348 117.427383,85.789536 
	C120.302101,89.240105 123.831795,92.654457 122.037086,98.399117 
	C121.352509,100.590370 121.004066,103.000175 121.116928,105.279961 
	C121.174873,106.450500 122.383690,107.870766 123.466156,108.558258 
	C124.031952,108.917618 126.281258,108.055382 126.355286,107.541161 
	C127.190315,101.741089 130.221039,94.485542 127.863037,90.371368 
	C123.158401,82.162865 122.625938,73.408173 119.893929,64.507950 
	C127.349648,62.663288 129.759521,57.476612 129.609451,50.726269 
	C129.553864,48.226166 132.087753,44.901138 127.937485,43.731979 
	C127.541008,43.620289 125.365616,47.679501 125.010994,49.957314 
	C123.856590,57.372276 121.835693,59.754696 114.212151,61.974751 
	C109.761940,63.270706 105.357780,64.760979 101.018875,66.392487 
	C96.913406,67.936211 93.188812,66.759079 91.234077,62.887104 
	C90.263588,60.964722 89.433365,58.971523 88.439796,56.178223 
	C88.691689,54.052780 89.090591,51.932468 89.164917,49.800835 
	C89.320305,45.344131 86.369637,40.701077 82.711960,40.467216 
	C80.988350,40.357018 78.516266,41.557201 77.499359,42.968033 
	C75.423325,45.848236 77.150375,51.347359 80.447792,54.016205 
	C82.223267,55.453220 84.109138,56.753830 86.007408,58.845585 
M72.794579,138.428757 
	C72.794579,141.536621 72.794579,144.644485 72.794579,147.791565 
	C74.832329,147.791565 76.425674,147.791565 78.205612,147.791565 
	C78.205612,140.580902 78.231384,133.603821 78.194283,126.627068 
	C78.176834,123.345734 78.886993,119.227058 74.993553,118.030838 
	C72.415604,117.238792 69.214951,118.473511 66.814507,118.742462 
	C65.131218,118.265686 63.542923,117.815819 61.633305,117.274933 
	C61.633305,128.046310 61.633305,137.809448 61.633305,147.696472 
	C63.511684,147.696472 65.189934,147.696472 67.027550,147.696472 
	C67.027550,140.397522 66.841461,133.418594 67.162109,126.463028 
	C67.239517,124.783897 68.993179,123.182045 69.976006,121.544655 
	C70.914810,123.189468 72.463837,124.763191 72.665451,126.493881 
	C73.085823,130.102417 72.793884,133.793930 72.794579,138.428757 
M38.968246,140.433548 
	C38.968246,142.892776 38.968246,145.351990 38.968246,147.794403 
	C41.016842,147.794403 42.602230,147.794403 44.570419,147.794403 
	C44.570419,140.595734 44.391693,133.621292 44.695095,126.667870 
	C44.771698,124.912270 46.388718,123.223877 47.297871,121.504601 
	C48.187984,123.130569 49.779831,124.728348 49.846493,126.387413 
	C50.132034,133.493973 49.968212,140.618591 49.968212,147.732788 
	C52.133118,147.732788 53.854946,147.732788 55.874420,147.732788 
	C55.874420,139.806992 55.970913,132.173706 55.831192,124.544746 
	C55.767281,121.055115 54.758030,118.084694 50.627731,117.092392 
	C47.619114,116.369576 45.048225,121.659294 41.892792,117.533295 
	C41.610409,117.164062 40.310493,117.558800 39.486660,117.636223 
	C39.386108,117.645668 39.307571,117.889389 38.968246,118.406204 
	C38.968246,125.165833 38.968246,132.309525 38.968246,140.433548 
M168.895050,124.834412 
	C170.071457,123.751610 171.247864,122.668800 172.424271,121.585999 
	C173.081512,122.965462 174.270447,124.331024 174.306946,125.726723 
	C174.497742,133.021622 174.396011,140.324158 174.396011,147.827942 
	C176.421356,147.827942 178.015289,147.827942 179.972061,147.827942 
	C179.972061,139.486023 180.307846,131.172363 179.733276,122.922127 
	C179.591675,120.888809 176.420227,117.409584 174.757141,117.476257 
	C171.036392,117.625427 167.401764,119.758179 163.372314,116.929062 
	C163.372314,127.936157 163.372314,137.845200 163.372314,147.838852 
	C165.238953,147.838852 166.842926,147.838852 168.889832,147.838852 
	C168.889832,140.355713 168.889832,133.066605 168.895050,124.834412 
M114.010643,128.891922 
	C111.416367,130.567734 108.599541,131.985138 106.281403,133.981583 
	C103.028351,136.783188 102.478874,140.766144 104.136009,144.449722 
	C104.892189,146.130615 107.402847,147.825455 109.275887,148.024277 
	C112.609940,148.378189 116.064247,147.599091 119.830055,147.261429 
	C119.830055,140.126190 120.028160,132.500183 119.765327,124.890068 
	C119.566734,119.140060 116.481392,116.631943 111.132591,117.132957 
	C105.624237,117.648933 103.572884,120.600998 104.428024,126.846474 
	C107.165451,127.799706 108.730644,127.256409 109.114281,123.955666 
	C109.221100,123.036583 111.076157,122.320694 112.129189,121.511589 
	C112.789955,122.524544 113.696815,123.461334 114.040649,124.572365 
	C114.369125,125.633781 114.111565,126.876556 114.010643,128.891922 
M153.290909,133.873993 
	C154.764084,133.873993 156.237244,133.873993 158.046143,133.873993 
	C158.194092,130.712051 158.565872,127.894516 158.401428,125.108635 
	C158.138199,120.649117 156.071487,117.370995 151.170563,117.185005 
	C146.548599,117.009605 143.258362,119.404999 142.887131,124.016747 
	C142.412445,129.913666 142.185120,135.949188 142.921112,141.790176 
	C143.602554,147.198380 146.947632,148.917725 152.307083,148.115295 
	C156.619553,147.469604 158.130066,145.095932 157.881622,139.255341 
	C156.495163,139.255341 155.108032,139.255341 154.946777,139.255341 
	C153.059860,141.327286 151.870773,142.632980 150.681686,143.938660 
	C149.747116,142.259125 148.522964,140.668884 147.968994,138.872025 
	C147.520386,137.416946 147.877975,135.713333 147.877975,133.874008 
	C149.751495,133.874008 151.058517,133.874008 153.290909,133.873993 
M96.398750,146.940399 
	C102.167313,139.561829 100.188522,131.224472 99.151184,123.099121 
	C98.637573,119.076088 95.684685,117.151131 91.719429,117.173164 
	C87.541878,117.196365 84.470932,119.293472 84.085045,123.507179 
	C83.575180,129.074646 83.218651,134.769882 83.823456,140.297791 
	C84.634628,147.711945 88.196281,149.490585 96.398750,146.940399 
M17.824953,136.831055 
	C17.972271,138.319946 17.972960,139.841171 18.292980,141.291962 
	C19.503248,146.778610 22.608686,148.954117 28.015558,148.103439 
	C33.088577,147.305283 33.967884,143.677719 34.023518,139.203522 
	C32.301331,139.203522 30.880579,139.203522 29.459827,139.203522 
	C29.669100,139.500092 29.878372,139.796661 30.087645,140.093231 
	C28.768322,141.370438 27.448999,142.647659 26.129675,143.924866 
	C25.273176,142.319931 24.126514,140.796234 23.647621,139.085587 
	C23.228577,137.588730 23.560184,135.881729 23.560184,133.833069 
	C27.083799,133.833069 30.178997,133.833069 33.706936,133.833069 
	C33.885464,130.997818 34.216297,128.551453 34.157471,126.114479 
	C34.019810,120.411438 31.508066,117.427841 26.875973,117.146584 
	C22.409491,116.875374 18.918711,119.780159 18.197762,125.005676 
	C17.700497,128.609924 17.909634,132.311615 17.824953,136.831055 
M125.411835,140.383759 
	C125.411835,142.841248 125.411835,145.298737 125.411835,147.847107 
	C127.502701,147.847107 129.095657,147.847107 131.040817,147.847107 
	C131.040817,140.378220 130.957153,133.094589 131.109863,125.815910 
	C131.141235,124.320457 132.056152,122.843544 132.563812,121.358086 
	C133.069534,121.489998 133.575241,121.621910 134.080963,121.753822 
	C134.443375,123.482277 134.805771,125.210732 135.439285,128.232239 
	C136.988770,126.892998 138.795029,126.099197 138.993652,125.011742 
	C139.523422,122.111397 139.937302,118.463326 136.137970,117.527206 
	C133.108871,116.780869 129.799240,119.508583 126.576584,117.500366 
	C126.188454,118.657669 125.486031,119.809242 125.464775,120.973251 
	C125.352570,127.118828 125.411987,133.267532 125.411835,140.383759 
M109.085617,59.672607 
	C111.436775,58.967358 114.182442,58.766121 115.982689,57.357033 
	C116.972092,56.582603 117.102547,53.325680 116.291908,52.000881 
	C115.360077,50.478027 112.931313,49.015442 111.205803,49.074593 
	C109.479897,49.133755 106.570641,50.953342 106.411140,52.271263 
	C106.144585,54.473766 107.653320,56.891125 109.085617,59.672607 
M124.022430,40.414043 
	C122.990913,39.011280 122.181084,37.254055 120.808968,36.395889 
	C120.321472,36.090996 117.933708,37.739395 117.414543,38.931942 
	C117.035828,39.801891 118.243439,42.421803 118.837967,42.452724 
	C120.466873,42.537457 122.145454,41.667156 124.022430,40.414043 
z"/>
<path fill="#090909" opacity="1.000000" stroke="none" 
	d="
M201.000000,147.531357 
	C197.497940,148.207077 194.199158,146.970871 190.423141,147.940613 
	C185.834579,149.119003 182.258972,143.337631 184.666580,138.157867 
	C186.052765,135.175583 189.196518,132.453369 192.213028,130.920898 
	C196.367447,128.810379 194.867538,125.811760 194.593155,122.930183 
	C194.538055,122.351509 192.824936,121.303139 192.361664,121.517982 
	C191.308716,122.006287 190.518112,123.109825 189.693237,124.028282 
	C188.580032,125.267769 187.534821,126.568329 185.742691,128.694016 
	C184.293930,121.232872 185.568909,118.737335 190.281525,117.479523 
	C195.027145,116.212906 198.641327,118.128342 200.651337,122.895233 
	C201.000000,131.020905 201.000000,139.041809 201.000000,147.531357 
M189.982620,142.121277 
	C191.181778,142.663589 192.380920,143.205917 193.580063,143.748245 
	C194.239349,140.568008 194.898651,137.387787 195.711227,133.468094 
	C190.623581,134.875900 189.498672,137.607681 189.982620,142.121277 
z"/>
<path fill="#0D0D0D" opacity="1.000000" stroke="none" 
	d="
M1.000000,110.416664 
	C5.471004,110.000000 9.942009,110.000000 14.714359,110.000000 
	C14.714359,111.773178 14.714359,113.134270 14.714359,114.710579 
	C12.917588,114.803719 11.286367,114.888283 9.166233,114.998184 
	C9.166233,125.840179 9.166233,136.724472 9.166233,147.782898 
	C6.961455,147.782898 5.242831,147.782898 3.132016,147.782898 
	C3.132016,138.093842 3.183503,128.639374 3.076933,119.186676 
	C3.060805,117.756157 2.309160,116.333931 1.448866,114.953934 
	C1.000000,113.611107 1.000000,112.222221 1.000000,110.416664 
z"/>
<path fill="#0B0B0B" opacity="1.000000" stroke="none" 
	d="
M88.539688,57.010361 
	C89.433365,58.971523 90.263588,60.964722 91.234077,62.887104 
	C93.188812,66.759079 96.913406,67.936211 101.018875,66.392487 
	C105.357780,64.760979 109.761940,63.270706 114.212151,61.974751 
	C121.835693,59.754696 123.856590,57.372276 125.010994,49.957314 
	C125.365616,47.679501 127.541008,43.620289 127.937485,43.731979 
	C132.087753,44.901138 129.553864,48.226166 129.609451,50.726269 
	C129.759521,57.476612 127.349648,62.663288 119.893929,64.507950 
	C122.625938,73.408173 123.158401,82.162865 127.863037,90.371368 
	C130.221039,94.485542 127.190315,101.741089 126.355286,107.541161 
	C126.281258,108.055382 124.031952,108.917618 123.466156,108.558258 
	C122.383690,107.870766 121.174873,106.450500 121.116928,105.279961 
	C121.004066,103.000175 121.352509,100.590370 122.037086,98.399117 
	C123.831795,92.654457 120.302101,89.240105 117.427383,85.789536 
	C114.585907,92.492348 111.895187,99.122574 108.919876,105.622528 
	C108.314987,106.943993 106.774979,108.399490 105.425400,108.695312 
	C102.983032,109.230675 101.667755,106.141624 103.035042,103.300636 
	C104.680870,99.880920 106.702133,96.612511 108.044991,93.082359 
	C111.047997,85.187943 107.492668,77.774719 106.061768,69.610245 
	C101.749702,71.302330 97.787582,72.857101 93.700706,74.460823 
	C89.334801,70.374062 86.959923,64.965683 86.134384,58.223007 
	C87.020805,57.403740 87.780243,57.207050 88.539688,57.010361 
z"/>
<path fill="#0F0F0F" opacity="1.000000" stroke="none" 
	d="
M72.794594,137.940063 
	C72.793884,133.793930 73.085823,130.102417 72.665451,126.493881 
	C72.463837,124.763191 70.914810,123.189468 69.975998,121.544655 
	C68.993179,123.182045 67.239517,124.783897 67.162109,126.463028 
	C66.841461,133.418594 67.027550,140.397522 67.027550,147.696472 
	C65.189934,147.696472 63.511684,147.696472 61.633305,147.696472 
	C61.633305,137.809448 61.633305,128.046310 61.633305,117.274933 
	C63.542923,117.815819 65.131218,118.265686 66.814507,118.742462 
	C69.214951,118.473511 72.415604,117.238792 74.993553,118.030838 
	C78.886993,119.227058 78.176834,123.345734 78.194283,126.627068 
	C78.231384,133.603821 78.205612,140.580902 78.205612,147.791565 
	C76.425674,147.791565 74.832329,147.791565 72.794579,147.791565 
	C72.794579,144.644485 72.794579,141.536621 72.794594,137.940063 
z"/>
<path fill="#111111" opacity="1.000000" stroke="none" 
	d="
M38.968246,139.943390 
	C38.968246,132.309525 38.968246,125.165833 38.968246,118.406204 
	C39.307571,117.889389 39.386108,117.645668 39.486660,117.636223 
	C40.310493,117.558800 41.610409,117.164062 41.892792,117.533295 
	C45.048225,121.659294 47.619114,116.369576 50.627731,117.092392 
	C54.758030,118.084694 55.767281,121.055115 55.831192,124.544746 
	C55.970913,132.173706 55.874420,139.806992 55.874420,147.732788 
	C53.854946,147.732788 52.133118,147.732788 49.968212,147.732788 
	C49.968212,140.618591 50.132034,133.493973 49.846493,126.387413 
	C49.779831,124.728348 48.187984,123.130569 47.297867,121.504601 
	C46.388718,123.223877 44.771698,124.912270 44.695095,126.667870 
	C44.391693,133.621292 44.570419,140.595734 44.570419,147.794403 
	C42.602230,147.794403 41.016842,147.794403 38.968246,147.794403 
	C38.968246,145.351990 38.968246,142.892776 38.968246,139.943390 
z"/>
<path fill="#151515" opacity="1.000000" stroke="none" 
	d="
M168.892441,125.305954 
	C168.889832,133.066605 168.889832,140.355713 168.889832,147.838852 
	C166.842926,147.838852 165.238953,147.838852 163.372314,147.838852 
	C163.372314,137.845200 163.372314,127.936157 163.372314,116.929062 
	C167.401764,119.758179 171.036392,117.625427 174.757141,117.476257 
	C176.420227,117.409584 179.591675,120.888809 179.733276,122.922127 
	C180.307846,131.172363 179.972061,139.486023 179.972061,147.827942 
	C178.015289,147.827942 176.421356,147.827942 174.396011,147.827942 
	C174.396011,140.324158 174.497742,133.021622 174.306946,125.726723 
	C174.270447,124.331024 173.081512,122.965462 172.424271,121.585999 
	C171.247864,122.668800 170.071457,123.751610 168.892441,125.305954 
z"/>
<path fill="#111111" opacity="1.000000" stroke="none" 
	d="
M114.061127,128.465759 
	C114.111565,126.876556 114.369125,125.633781 114.040649,124.572365 
	C113.696815,123.461334 112.789955,122.524544 112.129189,121.511589 
	C111.076157,122.320694 109.221100,123.036583 109.114281,123.955666 
	C108.730644,127.256409 107.165451,127.799706 104.428024,126.846474 
	C103.572884,120.600998 105.624237,117.648933 111.132591,117.132957 
	C116.481392,116.631943 119.566734,119.140060 119.765327,124.890068 
	C120.028160,132.500183 119.830055,140.126190 119.830055,147.261429 
	C116.064247,147.599091 112.609940,148.378189 109.275887,148.024277 
	C107.402847,147.825455 104.892189,146.130615 104.136009,144.449722 
	C102.478874,140.766144 103.028351,136.783188 106.281403,133.981583 
	C108.599541,131.985138 111.416367,130.567734 114.061127,128.465759 
M108.985458,139.641388 
	C110.083694,141.057495 111.181938,142.473587 112.280182,143.889694 
	C113.082863,140.696808 113.885536,137.503906 114.688217,134.311020 
	C113.980064,134.055115 113.271904,133.799225 112.563751,133.543335 
	C111.382423,135.305527 110.201088,137.067734 108.985458,139.641388 
z"/>
<path fill="#0F0F0F" opacity="1.000000" stroke="none" 
	d="
M152.828232,133.873993 
	C151.058517,133.874008 149.751495,133.874008 147.877975,133.874008 
	C147.877975,135.713333 147.520386,137.416946 147.968994,138.872025 
	C148.522964,140.668884 149.747116,142.259125 150.681686,143.938660 
	C151.870773,142.632980 153.059860,141.327286 154.946777,139.255341 
	C155.108032,139.255341 156.495163,139.255341 157.881622,139.255341 
	C158.130066,145.095932 156.619553,147.469604 152.307083,148.115295 
	C146.947632,148.917725 143.602554,147.198380 142.921112,141.790176 
	C142.185120,135.949188 142.412445,129.913666 142.887131,124.016747 
	C143.258362,119.404999 146.548599,117.009605 151.170563,117.185005 
	C156.071487,117.370995 158.138199,120.649117 158.401428,125.108635 
	C158.565872,127.894516 158.194092,130.712051 158.046143,133.873993 
	C156.237244,133.873993 154.764084,133.873993 152.828232,133.873993 
M153.350662,128.412888 
	C152.402832,126.085915 151.455017,123.758949 150.507187,121.431976 
	C149.627838,123.814857 148.716721,126.187035 147.906418,128.593170 
	C147.796112,128.920776 148.189758,129.418106 148.488678,130.198898 
	C150.069550,129.898224 151.590363,129.608963 153.350662,128.412888 
z"/>
<path fill="#0D0D0D" opacity="1.000000" stroke="none" 
	d="
M96.077866,147.134796 
	C88.196281,149.490585 84.634628,147.711945 83.823456,140.297791 
	C83.218651,134.769882 83.575180,129.074646 84.085045,123.507179 
	C84.470932,119.293472 87.541878,117.196365 91.719429,117.173164 
	C95.684685,117.151131 98.637573,119.076088 99.151184,123.099121 
	C100.188522,131.224472 102.167313,139.561829 96.077866,147.134796 
M94.522926,136.993484 
	C94.411057,133.007538 94.499634,128.999954 94.072914,125.047997 
	C93.933380,123.755783 92.453384,122.608299 91.586426,121.394623 
	C90.732811,122.673279 89.252480,123.900391 89.142296,125.240189 
	C88.802452,129.372543 88.692871,133.575821 89.085709,137.695114 
	C89.291077,139.848572 90.736694,141.883743 91.622162,143.972336 
	C92.586044,141.938202 93.549927,139.904068 94.522926,136.993484 
z"/>
<path fill="#0C0C0C" opacity="1.000000" stroke="none" 
	d="
M17.814014,136.400421 
	C17.909634,132.311615 17.700497,128.609924 18.197762,125.005676 
	C18.918711,119.780159 22.409491,116.875374 26.875973,117.146584 
	C31.508066,117.427841 34.019810,120.411438 34.157471,126.114479 
	C34.216297,128.551453 33.885464,130.997818 33.706936,133.833069 
	C30.178997,133.833069 27.083799,133.833069 23.560184,133.833069 
	C23.560184,135.881729 23.228577,137.588730 23.647621,139.085587 
	C24.126514,140.796234 25.273176,142.319931 26.129677,143.924866 
	C27.448999,142.647659 28.768322,141.370438 30.087645,140.093231 
	C29.878372,139.796661 29.669100,139.500092 29.459827,139.203522 
	C30.880579,139.203522 32.301331,139.203522 34.023518,139.203522 
	C33.967884,143.677719 33.088577,147.305283 28.015558,148.103439 
	C22.608686,148.954117 19.503248,146.778610 18.292980,141.291962 
	C17.972960,139.841171 17.972271,138.319946 17.814014,136.400421 
M25.070442,121.875084 
	C24.389339,124.386551 23.708239,126.898018 22.955637,129.673126 
	C25.595356,129.673126 27.267454,129.673126 29.193800,129.673126 
	C28.286137,126.567154 30.819143,122.502975 25.070442,121.875084 
z"/>
<path fill="#161616" opacity="1.000000" stroke="none" 
	d="
M125.411850,139.899460 
	C125.411987,133.267532 125.352570,127.118828 125.464775,120.973251 
	C125.486031,119.809242 126.188454,118.657669 126.576584,117.500366 
	C129.799240,119.508583 133.108871,116.780869 136.137970,117.527206 
	C139.937302,118.463326 139.523422,122.111397 138.993652,125.011742 
	C138.795029,126.099197 136.988770,126.892998 135.439285,128.232239 
	C134.805771,125.210732 134.443375,123.482277 134.080963,121.753822 
	C133.575241,121.621910 133.069534,121.489998 132.563812,121.358086 
	C132.056152,122.843544 131.141235,124.320457 131.109863,125.815910 
	C130.957153,133.094589 131.040817,140.378220 131.040817,147.847107 
	C129.095657,147.847107 127.502701,147.847107 125.411835,147.847107 
	C125.411835,145.298737 125.411835,142.841248 125.411850,139.899460 
z"/>
<path fill="#0D0D0D" opacity="1.000000" stroke="none" 
	d="
M88.489746,56.594292 
	C87.780243,57.207050 87.020805,57.403740 86.103279,57.858208 
	C84.109138,56.753830 82.223267,55.453220 80.447792,54.016205 
	C77.150375,51.347359 75.423325,45.848236 77.499359,42.968033 
	C78.516266,41.557201 80.988350,40.357018 82.711960,40.467216 
	C86.369637,40.701077 89.320305,45.344131 89.164917,49.800835 
	C89.090591,51.932468 88.691689,54.052780 88.489746,56.594292 
z"/>
<path fill="#090909" opacity="1.000000" stroke="none" 
	d="
M108.750198,59.445328 
	C107.653320,56.891125 106.144585,54.473766 106.411140,52.271263 
	C106.570641,50.953342 109.479897,49.133755 111.205803,49.074593 
	C112.931313,49.015442 115.360077,50.478027 116.291908,52.000881 
	C117.102547,53.325680 116.972092,56.582603 115.982689,57.357033 
	C114.182442,58.766121 111.436775,58.967358 108.750198,59.445328 
z"/>
<path fill="#111111" opacity="1.000000" stroke="none" 
	d="
M123.913406,40.794495 
	C122.145454,41.667156 120.466873,42.537457 118.837967,42.452724 
	C118.243439,42.421803 117.035828,39.801891 117.414543,38.931942 
	C117.933708,37.739395 120.321472,36.090996 120.808968,36.395889 
	C122.181084,37.254055 122.990913,39.011280 123.913406,40.794495 
z"/>
<path fill="#F4F4F4" opacity="1.000000" stroke="none" 
	d="
M189.899139,141.707458 
	C189.498672,137.607681 190.623581,134.875900 195.711227,133.468094 
	C194.898651,137.387787 194.239349,140.568008 193.580063,143.748245 
	C192.380920,143.205917 191.181778,142.663589 189.899139,141.707458 
z"/>
<path fill="#F8F8F8" opacity="1.000000" stroke="none" 
	d="
M109.002609,139.235657 
	C110.201088,137.067734 111.382423,135.305527 112.563751,133.543335 
	C113.271904,133.799225 113.980064,134.055115 114.688217,134.311020 
	C113.885536,137.503906 113.082863,140.696808 112.280182,143.889694 
	C111.181938,142.473587 110.083694,141.057495 109.002609,139.235657 
z"/>
<path fill="#F4F4F4" opacity="1.000000" stroke="none" 
	d="
M153.230927,128.866302 
	C151.590363,129.608963 150.069550,129.898224 148.488678,130.198898 
	C148.189758,129.418106 147.796112,128.920776 147.906418,128.593170 
	C148.716721,126.187035 149.627838,123.814857 150.507187,121.431976 
	C151.455017,123.758949 152.402832,126.085915 153.230927,128.866302 
z"/>
<path fill="#ECECEC" opacity="1.000000" stroke="none" 
	d="
M94.518372,137.431702 
	C93.549927,139.904068 92.586044,141.938202 91.622162,143.972336 
	C90.736694,141.883743 89.291077,139.848572 89.085709,137.695114 
	C88.692871,133.575821 88.802452,129.372543 89.142296,125.240189 
	C89.252480,123.900391 90.732811,122.673279 91.586426,121.394623 
	C92.453384,122.608299 93.933380,123.755783 94.072914,125.047997 
	C94.499634,128.999954 94.411057,133.007538 94.518372,137.431702 
z"/>
<path fill="#ECECEC" opacity="1.000000" stroke="none" 
	d="
M25.412115,121.706177 
	C30.819143,122.502975 28.286137,126.567154 29.193800,129.673126 
	C27.267454,129.673126 25.595356,129.673126 22.955637,129.673126 
	C23.708239,126.898018 24.389339,124.386551 25.412115,121.706177 
z"/>
</svg>